<svg width="668" height="440" viewBox="0 0 668 440" fill="none" xmlns="http://www.w3.org/2000/svg">
<rect x="119.5" y="0.5" width="547.313" height="353" rx="19.5" fill="white" stroke="black"/>
<rect x="122" y="23" width="132" height="315" fill="white"/>
<path d="M157.66 58.3208C157.66 58.5822 157.597 58.8272 157.471 59.0558C157.349 59.2845 157.156 59.4688 156.89 59.6088C156.628 59.7488 156.297 59.8188 155.896 59.8188H155.077V61.6948H154.097V56.8088H155.896C156.274 56.8088 156.596 56.8742 156.862 57.0048C157.128 57.1355 157.326 57.3152 157.457 57.5438C157.592 57.7725 157.66 58.0315 157.66 58.3208ZM155.854 59.0278C156.124 59.0278 156.325 58.9672 156.456 58.8458C156.586 58.7198 156.652 58.5448 156.652 58.3208C156.652 57.8448 156.386 57.6068 155.854 57.6068H155.077V59.0278H155.854ZM158.104 59.7418C158.104 59.3498 158.181 59.0022 158.335 58.6988C158.493 58.3955 158.706 58.1622 158.972 57.9988C159.242 57.8355 159.543 57.7538 159.875 57.7538C160.164 57.7538 160.416 57.8122 160.631 57.9288C160.85 58.0455 161.025 58.1925 161.156 58.3698V57.8168H162.143V61.6948H161.156V61.1278C161.03 61.3098 160.855 61.4615 160.631 61.5828C160.411 61.6995 160.157 61.7578 159.868 61.7578C159.541 61.7578 159.242 61.6738 158.972 61.5058C158.706 61.3378 158.493 61.1022 158.335 60.7988C158.181 60.4908 158.104 60.1385 158.104 59.7418ZM161.156 59.7558C161.156 59.5178 161.109 59.3148 161.016 59.1468C160.922 58.9742 160.796 58.8435 160.638 58.7548C160.479 58.6615 160.309 58.6148 160.127 58.6148C159.945 58.6148 159.777 58.6592 159.623 58.7478C159.469 58.8365 159.343 58.9672 159.245 59.1398C159.151 59.3078 159.105 59.5085 159.105 59.7418C159.105 59.9752 159.151 60.1805 159.245 60.3578C159.343 60.5305 159.469 60.6635 159.623 60.7568C159.781 60.8502 159.949 60.8968 160.127 60.8968C160.309 60.8968 160.479 60.8525 160.638 60.7638C160.796 60.6705 160.922 60.5398 161.016 60.3718C161.109 60.1992 161.156 59.9938 161.156 59.7558ZM164.08 58.3768C164.206 58.1995 164.378 58.0525 164.598 57.9358C164.822 57.8145 165.076 57.7538 165.361 57.7538C165.692 57.7538 165.991 57.8355 166.257 57.9988C166.527 58.1622 166.74 58.3955 166.894 58.6988C167.052 58.9975 167.132 59.3452 167.132 59.7418C167.132 60.1385 167.052 60.4908 166.894 60.7988C166.74 61.1022 166.527 61.3378 166.257 61.5058C165.991 61.6738 165.692 61.7578 165.361 61.7578C165.076 61.7578 164.824 61.6995 164.605 61.5828C164.39 61.4662 164.215 61.3192 164.08 61.1418V63.5428H163.1V57.8168H164.08V58.3768ZM166.131 59.7418C166.131 59.5085 166.082 59.3078 165.984 59.1398C165.89 58.9672 165.764 58.8365 165.606 58.7478C165.452 58.6592 165.284 58.6148 165.102 58.6148C164.924 58.6148 164.756 58.6615 164.598 58.7548C164.444 58.8435 164.318 58.9742 164.22 59.1468C164.126 59.3195 164.08 59.5225 164.08 59.7558C164.08 59.9892 164.126 60.1922 164.22 60.3648C164.318 60.5375 164.444 60.6705 164.598 60.7638C164.756 60.8525 164.924 60.8968 165.102 60.8968C165.284 60.8968 165.452 60.8502 165.606 60.7568C165.764 60.6635 165.89 60.5305 165.984 60.3578C166.082 60.1852 166.131 59.9798 166.131 59.7418ZM171.449 59.6718C171.449 59.8118 171.44 59.9378 171.421 60.0498H168.586C168.609 60.3298 168.707 60.5492 168.88 60.7078C169.053 60.8665 169.265 60.9458 169.517 60.9458C169.881 60.9458 170.14 60.7895 170.294 60.4768H171.351C171.239 60.8502 171.024 61.1582 170.707 61.4008C170.39 61.6388 170 61.7578 169.538 61.7578C169.165 61.7578 168.829 61.6762 168.53 61.5128C168.236 61.3448 168.005 61.1092 167.837 60.8058C167.674 60.5025 167.592 60.1525 167.592 59.7558C167.592 59.3545 167.674 59.0022 167.837 58.6988C168 58.3955 168.229 58.1622 168.523 57.9988C168.817 57.8355 169.155 57.7538 169.538 57.7538C169.907 57.7538 170.236 57.8332 170.525 57.9918C170.819 58.1505 171.045 58.3768 171.204 58.6708C171.367 58.9602 171.449 59.2938 171.449 59.6718ZM170.434 59.3918C170.429 59.1398 170.338 58.9392 170.161 58.7898C169.984 58.6358 169.767 58.5588 169.51 58.5588C169.267 58.5588 169.062 58.6335 168.894 58.7828C168.731 58.9275 168.63 59.1305 168.593 59.3918H170.434ZM173.144 58.4188C173.27 58.2135 173.433 58.0525 173.634 57.9358C173.839 57.8192 174.073 57.7608 174.334 57.7608V58.7898H174.075C173.767 58.7898 173.534 58.8622 173.375 59.0068C173.221 59.1515 173.144 59.4035 173.144 59.7628V61.6948H172.164V57.8168H173.144V58.4188Z" fill="black"/>
<path d="M178.557 58.3208C178.557 58.5822 178.494 58.8272 178.368 59.0558C178.247 59.2845 178.053 59.4688 177.787 59.6088C177.526 59.7488 177.195 59.8188 176.793 59.8188H175.974V61.6948H174.994V56.8088H176.793C177.171 56.8088 177.493 56.8742 177.759 57.0048C178.025 57.1355 178.224 57.3152 178.354 57.5438C178.49 57.7725 178.557 58.0315 178.557 58.3208ZM176.751 59.0278C177.022 59.0278 177.223 58.9672 177.353 58.8458C177.484 58.7198 177.549 58.5448 177.549 58.3208C177.549 57.8448 177.283 57.6068 176.751 57.6068H175.974V59.0278H176.751ZM180.233 56.5148V61.6948H179.253V56.5148H180.233ZM180.949 59.7418C180.949 59.3498 181.026 59.0022 181.18 58.6988C181.339 58.3955 181.551 58.1622 181.817 57.9988C182.088 57.8355 182.389 57.7538 182.72 57.7538C183.01 57.7538 183.262 57.8122 183.476 57.9288C183.696 58.0455 183.871 58.1925 184.001 58.3698V57.8168H184.988V61.6948H184.001V61.1278C183.875 61.3098 183.7 61.4615 183.476 61.5828C183.257 61.6995 183.003 61.7578 182.713 61.7578C182.387 61.7578 182.088 61.6738 181.817 61.5058C181.551 61.3378 181.339 61.1022 181.18 60.7988C181.026 60.4908 180.949 60.1385 180.949 59.7418ZM184.001 59.7558C184.001 59.5178 183.955 59.3148 183.861 59.1468C183.768 58.9742 183.642 58.8435 183.483 58.7548C183.325 58.6615 183.154 58.6148 182.972 58.6148C182.79 58.6148 182.622 58.6592 182.468 58.7478C182.314 58.8365 182.188 58.9672 182.09 59.1398C181.997 59.3078 181.95 59.5085 181.95 59.7418C181.95 59.9752 181.997 60.1805 182.09 60.3578C182.188 60.5305 182.314 60.6635 182.468 60.7568C182.627 60.8502 182.795 60.8968 182.972 60.8968C183.154 60.8968 183.325 60.8525 183.483 60.7638C183.642 60.6705 183.768 60.5398 183.861 60.3718C183.955 60.1992 184.001 59.9938 184.001 59.7558ZM188.094 57.7608C188.556 57.7608 188.93 57.9078 189.214 58.2018C189.499 58.4912 189.641 58.8972 189.641 59.4198V61.6948H188.661V59.5528C188.661 59.2448 188.584 59.0092 188.43 58.8458C188.276 58.6778 188.066 58.5938 187.8 58.5938C187.53 58.5938 187.315 58.6778 187.156 58.8458C187.002 59.0092 186.925 59.2448 186.925 59.5528V61.6948H185.945V57.8168H186.925V58.2998C187.056 58.1318 187.222 58.0012 187.422 57.9078C187.628 57.8098 187.852 57.7608 188.094 57.7608ZM194.178 59.6718C194.178 59.8118 194.169 59.9378 194.15 60.0498H191.315C191.339 60.3298 191.437 60.5492 191.609 60.7078C191.782 60.8665 191.994 60.9458 192.246 60.9458C192.61 60.9458 192.869 60.7895 193.023 60.4768H194.08C193.968 60.8502 193.754 61.1582 193.436 61.4008C193.119 61.6388 192.729 61.7578 192.267 61.7578C191.894 61.7578 191.558 61.6762 191.259 61.5128C190.965 61.3448 190.734 61.1092 190.566 60.8058C190.403 60.5025 190.321 60.1525 190.321 59.7558C190.321 59.3545 190.403 59.0022 190.566 58.6988C190.73 58.3955 190.958 58.1622 191.252 57.9988C191.546 57.8355 191.885 57.7538 192.267 57.7538C192.636 57.7538 192.965 57.8332 193.254 57.9918C193.548 58.1505 193.775 58.3768 193.933 58.6708C194.097 58.9602 194.178 59.2938 194.178 59.6718ZM193.163 59.3918C193.159 59.1398 193.068 58.9392 192.89 58.7898C192.713 58.6358 192.496 58.5588 192.239 58.5588C191.997 58.5588 191.791 58.6335 191.623 58.7828C191.46 58.9275 191.36 59.1305 191.322 59.3918H193.163Z" fill="#4D63DD"/>
<g filter="url(#filter0_d)">
<rect x="135.166" y="92.4819" width="81.8323" height="16.0827" rx="8.04133" fill="#EFF2FF"/>
</g>
<circle cx="146.046" cy="126.066" r="4.25717" fill="#8AA2ED"/>
<circle cx="146.046" cy="100.524" r="4.25717" fill="#8AA2ED"/>
<circle cx="146.046" cy="151.609" r="4.25717" fill="#7993E4"/>
<circle cx="146.046" cy="177.152" r="4.25717" fill="#7993E4"/>
<circle cx="146.046" cy="202.696" r="4.25717" fill="#7993E4"/>
<circle cx="146.046" cy="228.238" r="4.25717" fill="#7993E4"/>
<rect x="155.033" y="148.771" width="35.4765" height="5.67623" rx="2.83812" fill="#E1E1E4"/>
<rect x="155.033" y="123.228" width="35.4765" height="5.67623" rx="2.83812" fill="#E1E1E4"/>
<rect x="155.033" y="97.6851" width="35.4765" height="5.67623" rx="2.83812" fill="white"/>
<rect x="155.033" y="174.314" width="59.1274" height="5.67623" rx="2.83812" fill="#E1E1E4"/>
<rect x="155.033" y="199.857" width="47.7749" height="5.67623" rx="2.83812" fill="#E1E1E4"/>
<rect x="155.033" y="225.4" width="53.9242" height="5.67623" rx="2.83812" fill="#E1E1E4"/>
<g filter="url(#filter1_d)">
<rect x="273.288" y="232.496" width="189.681" height="99.8071" rx="41" fill="white"/>
</g>
<rect x="338.564" y="241.01" width="59.1274" height="4.73019" rx="2.3651" fill="#E6E6E6"/>
<rect x="291.735" y="277.433" width="28.8542" height="4.73019" rx="2.3651" fill="#D6F1A9"/>
<rect x="352.755" y="277.433" width="28.8542" height="4.73019" rx="2.3651" fill="#29B2DD" fill-opacity="0.54"/>
<rect x="414.248" y="277.433" width="28.8542" height="4.73019" rx="2.3651" fill="#FC8888"/>
<rect x="284.641" y="303.922" width="43.5178" height="4.73019" rx="2.3651" fill="#E9EDFE"/>
<rect x="345.66" y="303.922" width="43.5178" height="4.73019" rx="2.3651" fill="#E9EDFE"/>
<rect x="407.152" y="303.922" width="43.5178" height="4.73019" rx="2.3651" fill="#E9EDFE"/>
<rect x="253.421" y="22.9482" width="413.892" height="165.557" fill="#4D63DD" fill-opacity="0.69"/>
<g filter="url(#filter2_d)">
<rect x="273.288" y="88.2246" width="369.901" height="126.769" rx="26" fill="white"/>
</g>
<g filter="url(#filter3_d)">
<rect x="474.358" y="231.112" width="170.278" height="118.679" rx="41" fill="white"/>
</g>
<rect x="298.358" y="70.7231" width="35.4765" height="5.67623" rx="2.83812" fill="#E1E1E4"/>
<rect x="607.712" y="35.7197" width="35.4765" height="5.67623" rx="2.83812" fill="#E1E1E4"/>
<rect x="607.712" y="43.7612" width="22.2319" height="4.25717" rx="2.12859" fill="#E1E1E4"/>
<circle cx="287.478" cy="73.5611" r="4.25717" fill="white"/>
<circle cx="562.303" cy="41.869" r="6.14925" fill="white"/>
<circle cx="532.975" cy="41.869" r="6.14925" fill="white"/>
<circle cx="593.049" cy="41.8687" r="11.8255" fill="#FFDA5B"/>
<rect x="279.91" y="35.2466" width="208.129" height="13.2445" rx="6.62227" fill="white" fill-opacity="0.56"/>
<rect x="283.221" y="97.6851" width="107.848" height="11.8255" rx="5.91274" fill="#C4C4C4" fill-opacity="0.42"/>
<rect x="486.62" y="248.105" width="107.848" height="11.8255" rx="5.91274" fill="#C4C4C4" fill-opacity="0.42"/>
<rect x="283.221" y="118.498" width="161.773" height="7.56831" rx="3.78416" fill="#EFF2FF"/>
<rect x="283.221" y="131.27" width="317.396" height="7.56831" rx="3.78416" fill="#EFF2FF"/>
<rect x="283.221" y="144.041" width="107.848" height="7.56831" rx="3.78416" fill="#EFF2FF"/>
<rect x="487.093" y="277.433" width="107.848" height="7.56831" rx="3.78416" fill="#EFF2FF"/>
<rect x="487.093" y="302.503" width="107.848" height="7.56831" rx="3.78416" fill="#EFF2FF"/>
<rect x="487.093" y="334.668" width="61.4925" height="15.1366" rx="7.56831" fill="#EFF2FF"/>
<path d="M119.5 20C119.5 9.23044 128.23 0.5 139 0.5H647.313C658.083 0.5 666.813 9.23044 666.813 20V22.4482H119.5V20Z" fill="#EFF0F2" stroke="black"/>
<circle cx="133.529" cy="11.5422" r="4.34522" fill="#FF4C44"/>
<circle cx="150.639" cy="11.5422" r="4.34522" fill="#FFBE00"/>
<circle cx="167.748" cy="11.5422" r="4.34522" fill="#00D32A"/>
<g filter="url(#filter4_f)">
<ellipse cx="110" cy="383.901" rx="60" ry="5.69405" fill="#E0DCDC"/>
</g>
<path d="M126.234 356.734L125.249 373.19C125.249 373.19 141.595 379.693 141.693 382.748L109.79 381.96L110.282 356.241L126.234 356.734Z" fill="#7C90FF"/>
<g opacity="0.6">
<g opacity="0.6">
<g opacity="0.6">
<g opacity="0.6">
<g opacity="0.6">
<g opacity="0.6">
<path opacity="0.6" d="M115.402 371.514C114.811 371.711 114.319 372.303 114.417 372.992C114.516 373.584 115.205 374.076 115.894 373.978C116.485 373.879 117.076 372.992 116.879 372.401C116.682 371.81 115.796 371.317 115.304 371.613" fill="white"/>
</g>
</g>
</g>
</g>
</g>
</g>
<g opacity="0.6">
<g opacity="0.6">
<g opacity="0.6">
<g opacity="0.6">
<g opacity="0.6">
<path opacity="0.6" d="M109.691 381.959L109.888 379.397L140.413 381.171C140.413 381.171 141.792 381.861 141.595 382.846L109.691 381.959Z" fill="white"/>
</g>
</g>
</g>
</g>
</g>
<path d="M125.741 372.992C125.741 373.19 124.953 373.19 124.165 373.682C123.378 374.175 122.984 374.766 122.787 374.766C122.688 374.766 122.885 373.781 123.87 373.19C124.855 372.598 125.741 372.795 125.741 372.992Z" fill="#263238"/>
<path d="M128.991 374.471C128.991 374.668 128.302 374.865 127.809 375.555C127.219 376.146 127.12 376.934 126.923 376.836C126.825 376.836 126.726 375.949 127.415 375.16C128.105 374.372 128.991 374.274 128.991 374.471Z" fill="#263238"/>
<path d="M130.861 378.511C130.763 378.511 130.566 377.723 130.96 376.934C131.354 376.048 132.141 375.752 132.141 375.949C132.24 376.048 131.747 376.54 131.452 377.23C131.058 377.821 130.96 378.511 130.861 378.511Z" fill="#263238"/>
<path d="M125.544 369.248C125.446 369.347 124.757 369.15 123.87 369.15C122.984 369.15 122.295 369.445 122.196 369.347C122.098 369.248 122.787 368.657 123.87 368.657C124.855 368.558 125.643 369.051 125.544 369.248Z" fill="#263238"/>
<g opacity="0.3">
<g opacity="0.3">
<g opacity="0.3">
<g opacity="0.3">
<g opacity="0.3">
<path opacity="0.3" d="M126.037 359.986L125.84 362.843L110.183 362.351V358.902L126.037 359.986Z" fill="black"/>
</g>
</g>
</g>
</g>
</g>
<path d="M125.642 365.898C125.642 365.997 125.052 365.997 124.067 365.898C123.575 365.8 122.984 365.603 122.393 365.307C122.098 365.208 121.802 365.011 121.507 364.814C121.408 364.716 121.211 364.617 121.014 364.42C120.817 364.223 120.719 363.829 120.916 363.632C121.113 363.435 121.408 363.336 121.605 363.336C121.802 363.336 121.999 363.435 122.196 363.435C122.59 363.533 122.885 363.632 123.181 363.829C123.772 364.124 124.264 364.519 124.658 364.814C125.347 365.504 125.642 366.095 125.544 366.095C125.445 366.194 125.15 365.603 124.362 365.11C123.968 364.814 123.476 364.519 122.984 364.223C122.688 364.124 122.393 364.026 122.098 363.927C121.802 363.829 121.507 363.829 121.408 363.927C121.408 364.026 121.408 364.026 121.408 364.124C121.507 364.223 121.605 364.322 121.802 364.42C122.098 364.617 122.393 364.814 122.59 364.913C123.181 365.208 123.673 365.405 124.165 365.504C125.052 365.701 125.642 365.8 125.642 365.898Z" fill="#263238"/>
<path d="M125.446 366.095C125.348 366.095 125.052 365.503 125.052 364.518C125.052 364.025 125.151 363.434 125.348 362.744C125.446 362.449 125.643 362.055 125.742 361.759C125.938 361.463 126.135 361.069 126.825 360.971C127.12 360.971 127.415 361.266 127.514 361.463C127.612 361.66 127.612 361.858 127.711 362.055C127.809 362.449 127.711 362.843 127.711 363.139C127.612 363.828 127.317 364.42 127.022 364.814C126.332 365.602 125.742 365.799 125.742 365.701C125.643 365.602 126.234 365.306 126.726 364.518C126.923 364.124 127.219 363.631 127.317 363.04C127.317 362.744 127.317 362.449 127.317 362.153C127.317 361.858 127.12 361.562 127.022 361.562C126.825 361.562 126.628 361.759 126.431 362.055C126.234 362.35 126.135 362.646 126.037 362.941C125.84 363.533 125.742 364.025 125.643 364.518C125.348 365.503 125.545 366.095 125.446 366.095Z" fill="#263238"/>
<path d="M132.831 256.521L107.426 264.7C107.722 264.897 112.153 293.473 112.153 293.473L108.509 369.249L128.695 369.446L137.755 290.024L132.831 256.521Z" fill="#263238"/>
<path d="M97.3826 356.635L96.8902 373.091C96.8902 373.091 113.433 379.102 113.63 382.157L81.7261 382.354L81.4307 356.635H97.3826Z" fill="#7C90FF"/>
<g opacity="0.6">
<g opacity="0.6">
<g opacity="0.6">
<g opacity="0.6">
<g opacity="0.6">
<g opacity="0.6">
<path opacity="0.6" d="M87.0426 371.711C86.4518 371.908 85.9595 372.598 86.1564 373.189C86.2549 373.781 87.0426 374.273 87.6334 374.076C88.2242 373.879 88.8151 373.091 88.6181 372.5C88.4212 371.908 87.535 371.416 86.9442 371.711" fill="white"/>
</g>
</g>
</g>
</g>
</g>
</g>
<g opacity="0.6">
<g opacity="0.6">
<g opacity="0.6">
<g opacity="0.6">
<g opacity="0.6">
<path opacity="0.6" d="M81.7256 382.354L81.8241 379.792L112.448 380.58C112.448 380.58 113.826 381.172 113.728 382.157L81.7256 382.354Z" fill="white"/>
</g>
</g>
</g>
</g>
</g>
<path d="M97.3825 372.894C97.3825 373.091 96.5948 373.091 95.807 373.584C95.0193 374.077 94.6254 374.767 94.5269 374.668C94.4285 374.668 94.6254 373.683 95.5116 373.091C96.4963 372.599 97.481 372.796 97.3825 372.894Z" fill="#263238"/>
<path d="M100.73 374.274C100.73 374.471 100.139 374.668 99.5483 375.358C98.9575 376.047 98.8591 376.737 98.7606 376.737C98.6621 376.737 98.4652 375.85 99.1545 375.062C99.8437 374.175 100.73 374.175 100.73 374.274Z" fill="#263238"/>
<path d="M102.7 378.314C102.601 378.314 102.306 377.526 102.7 376.737C103.093 375.85 103.783 375.555 103.881 375.653C103.98 375.752 103.487 376.245 103.192 376.934C102.896 377.624 102.798 378.314 102.7 378.314Z" fill="#263238"/>
<path d="M97.0868 369.15C96.9883 369.248 96.299 369.051 95.4128 369.15C94.5266 369.15 93.8373 369.544 93.7388 369.347C93.6404 369.248 94.3297 368.657 95.3143 368.558C96.496 368.558 97.1852 369.051 97.0868 369.15Z" fill="#263238"/>
<g opacity="0.3">
<g opacity="0.3">
<g opacity="0.3">
<g opacity="0.3">
<g opacity="0.3">
<path opacity="0.3" d="M97.2836 359.887L97.1851 362.843L81.5286 362.744L81.4302 359.394L97.2836 359.887Z" fill="black"/>
</g>
</g>
</g>
</g>
</g>
<path d="M97.1854 365.8C97.1854 365.898 96.5946 365.997 95.6099 365.8C95.1176 365.701 94.5267 365.602 93.9359 365.307C93.6405 365.208 93.3451 365.011 93.0497 364.814C92.9513 364.716 92.7543 364.617 92.5574 364.42C92.3604 364.223 92.262 363.829 92.4589 363.632C92.6558 363.435 92.9513 363.238 93.1482 363.238C93.3451 363.238 93.5421 363.238 93.739 363.336C94.1329 363.435 94.4283 363.533 94.7237 363.632C95.3145 363.927 95.8068 364.223 96.2007 364.617C96.9885 365.307 97.1854 365.898 97.1854 365.898C97.0869 365.997 96.7915 365.504 96.0038 364.913C95.6099 364.617 95.1176 364.321 94.5267 364.124C94.2313 364.026 93.9359 363.927 93.6405 363.829C93.3451 363.73 93.0497 363.73 92.9513 363.927C92.9513 364.026 92.9513 364.026 92.9513 364.124C93.0497 364.223 93.1482 364.321 93.3451 364.42C93.6405 364.617 93.9359 364.716 94.2313 364.913C94.8222 365.208 95.3145 365.405 95.8068 365.504C96.5946 365.701 97.1854 365.8 97.1854 365.8Z" fill="#263238"/>
<path d="M96.9886 366.095C96.8901 366.095 96.5947 365.602 96.5947 364.518C96.5947 364.026 96.5947 363.434 96.7917 362.745C96.8901 362.449 96.9886 362.055 97.1855 361.759C97.3825 361.464 97.5794 360.971 98.1702 360.971C98.4656 360.971 98.761 361.168 98.8595 361.365C98.958 361.562 98.958 361.759 99.0564 361.956C99.1549 362.35 99.1549 362.646 99.0564 363.04C98.958 363.73 98.6626 364.321 98.3672 364.715C97.7763 365.504 97.0871 365.701 97.0871 365.701C96.9886 365.602 97.5794 365.307 98.0718 364.518C98.2687 364.124 98.4656 363.631 98.5641 363.04C98.5641 362.745 98.5641 362.449 98.5641 362.153C98.4656 361.858 98.3672 361.562 98.2687 361.562C98.0718 361.562 97.8748 361.858 97.6779 362.055C97.4809 362.35 97.3825 362.646 97.284 362.942C97.0871 363.533 96.9886 364.026 96.9886 364.518C96.8901 365.504 96.9886 365.996 96.9886 366.095Z" fill="#263238"/>
<path d="M76.9995 260.561C76.9995 266.276 79.2643 372.599 79.2643 372.599L98.3672 370.924L102.306 305.593L104.374 299.878L106.737 264.7L76.9995 260.561Z" fill="#263238"/>
<path d="M117.47 122.706C117.765 123.001 132.634 146.749 132.634 146.749L149.373 129.209L157.94 141.625C157.94 141.625 140.019 166.949 137.36 167.935C134.8 168.723 126.332 167.344 126.332 167.344L114.516 151.676L117.47 122.706Z" fill="#EBEBEB"/>
<path d="M132.831 152.267C132.733 152.267 132.536 151.085 132.536 149.508C132.536 148.03 132.536 146.749 132.733 146.749C132.831 146.749 133.028 147.931 133.028 149.508C133.028 150.986 132.93 152.267 132.831 152.267Z" fill="#263238"/>
<path d="M79.5593 105.067L76.9991 111.472C76.9991 111.472 63.8044 122.706 62.5243 124.381C61.3426 126.056 71.9772 181.829 71.9772 181.829C71.9772 181.829 71.288 263.714 71.9772 263.714C72.6665 263.714 81.8241 266.67 100.533 265.29C119.242 263.911 122.688 262.039 122.688 262.039L116.879 189.613L107.918 140.935L92.5571 121.031L79.5593 105.067Z" fill="#EBEBEB"/>
<path d="M109.691 132.658C109.691 132.658 107.721 123.198 107.918 122.903C108.115 122.607 103.487 111.472 103.487 111.472L101.912 106.348L81.0364 102.801L80.0518 105.954L107.918 141.132L110.774 156.209L113.728 152.07L109.691 132.658Z" fill="#7C90FF"/>
<path d="M128.301 203.802L123.772 149.31L120.03 128.026C119.537 123.789 116.682 119.552 116.682 119.552L105.85 113.246C105.85 113.246 102.896 109.6 102.798 109.107L107.918 122.212L109.691 132.658L110.774 156.701L116.682 188.923L122.492 259.87L135.096 257.407L128.301 203.802Z" fill="#EBEBEB"/>
<path d="M111.266 140.344L113.728 122.41L105.85 113.246L102.798 109.107L107.524 122.902L111.266 140.344Z" fill="#EBEBEB"/>
<path d="M98.8591 173.65L117.765 146.749L150.752 156.701L125.84 188.923L94.9204 178.872L98.8591 173.65Z" fill="#7C90FF"/>
<path d="M141.102 155.519C141.102 156.012 140.708 156.307 140.315 156.307C139.822 156.307 139.527 155.913 139.527 155.519C139.527 155.026 139.921 154.731 140.315 154.731C140.708 154.632 141.102 155.026 141.102 155.519Z" fill="#263238"/>
<path d="M127.908 151.774C127.908 152.267 127.514 152.562 127.12 152.562C126.627 152.562 126.332 152.168 126.332 151.774C126.332 151.281 126.726 150.986 127.12 150.986C127.612 150.986 127.908 151.38 127.908 151.774Z" fill="#263238"/>
<path d="M112.546 129.406C112.448 129.406 112.94 131.18 113.433 133.249C114.023 135.417 114.516 137.092 114.516 137.092C114.614 137.092 114.122 135.318 113.63 133.15C113.039 131.18 112.546 129.406 112.546 129.406Z" fill="#263238"/>
<path d="M118.75 141.526C118.848 142.314 118.75 143.103 118.455 143.792C118.159 144.482 117.47 145.172 116.781 145.369C116.781 145.369 115.107 145.96 113.728 144.679C112.546 143.595 111.562 140.836 111.857 138.964C112.054 137.683 112.842 136.402 114.023 136.008C115.599 135.515 116.977 136.402 117.568 137.584" fill="#E0E0E0"/>
<path d="M117.667 137.584C117.667 137.584 117.568 137.289 117.174 136.895C116.977 136.697 116.682 136.5 116.387 136.303C115.993 136.106 115.599 135.909 115.107 135.909C114.811 135.909 114.614 135.909 114.319 136.008C114.023 136.106 113.728 136.205 113.531 136.303C113.039 136.599 112.645 137.19 112.349 137.781C112.054 138.373 111.956 139.062 111.956 139.851C111.956 140.54 112.153 141.329 112.349 142.019C112.743 143.102 113.236 144.186 114.122 144.975C114.516 145.27 115.107 145.467 115.599 145.566C116.091 145.664 116.584 145.566 117.076 145.467C117.47 145.369 117.765 145.172 117.962 144.975C118.258 144.778 118.454 144.482 118.553 144.285C118.848 143.792 118.947 143.3 119.045 142.905C119.144 142.511 119.045 142.216 119.045 141.92C119.045 141.821 119.045 141.723 119.045 141.624C119.045 141.526 119.045 141.526 119.045 141.526C119.045 141.526 119.144 142.019 118.947 142.807C118.848 143.201 118.75 143.694 118.454 144.186C118.258 144.383 118.061 144.679 117.864 144.876C117.667 145.073 117.371 145.27 116.977 145.369C116.19 145.566 115.107 145.566 114.22 144.876C113.433 144.186 112.94 143.102 112.546 142.019C112.054 140.639 111.956 139.062 112.546 137.88C112.842 137.289 113.236 136.796 113.728 136.5C113.925 136.303 114.22 136.205 114.516 136.205C114.811 136.106 115.008 136.106 115.303 136.106C115.796 136.106 116.19 136.205 116.584 136.402C116.977 136.599 117.174 136.796 117.371 136.993C117.47 137.387 117.568 137.683 117.667 137.584Z" fill="#263238"/>
<path d="M119.636 141.329C119.735 142.117 119.636 142.906 119.341 143.595C119.045 144.285 118.356 144.975 117.667 145.172C117.667 145.172 115.993 145.763 114.614 144.482C113.433 143.398 112.448 140.639 112.743 138.767C112.94 137.486 113.728 136.205 114.91 135.811C116.485 135.318 117.864 136.205 118.455 137.387" fill="#E0E0E0"/>
<path d="M118.454 137.486C118.454 137.486 118.356 137.19 117.962 136.796C117.765 136.599 117.47 136.402 117.174 136.205C116.78 136.008 116.386 135.811 115.894 135.811C115.599 135.811 115.402 135.811 115.106 135.909C114.811 136.008 114.516 136.106 114.319 136.205C113.826 136.501 113.432 137.092 113.137 137.683C112.842 138.274 112.743 138.964 112.743 139.752C112.743 140.442 112.94 141.23 113.137 141.92C113.531 143.004 114.023 144.088 114.909 144.876C115.303 145.172 115.894 145.369 116.386 145.468C116.879 145.566 117.371 145.468 117.864 145.369C118.257 145.27 118.553 145.073 118.75 144.876C119.045 144.679 119.242 144.384 119.341 144.187C119.636 143.694 119.734 143.201 119.833 142.807C119.931 142.413 119.833 142.117 119.833 141.822C119.833 141.723 119.833 141.625 119.833 141.526C119.833 141.427 119.833 141.427 119.833 141.427C119.833 141.427 119.931 141.92 119.734 142.708C119.636 143.103 119.537 143.595 119.242 144.088C119.045 144.285 118.848 144.581 118.651 144.778C118.454 144.975 118.159 145.172 117.765 145.27C116.977 145.468 115.894 145.468 115.008 144.778C114.22 144.088 113.728 143.004 113.334 141.92C112.842 140.541 112.743 138.964 113.334 137.782C113.629 137.19 114.023 136.698 114.516 136.402C114.713 136.205 115.008 136.106 115.303 136.106C115.599 136.008 115.796 136.008 116.091 136.008C116.583 136.008 116.977 136.106 117.371 136.303C117.765 136.501 117.962 136.698 118.159 136.895C118.356 137.19 118.454 137.486 118.454 137.486Z" fill="#263238"/>
<path d="M116.977 137.387C117.765 136.993 118.749 137.387 119.242 137.979C119.734 138.668 119.931 139.555 119.833 140.344C119.833 140.738 119.734 141.23 119.537 141.625C119.34 142.019 119.045 142.314 118.553 142.413C117.962 142.61 117.272 142.314 116.78 141.92C115.992 141.23 115.5 140.245 115.5 139.26C115.5 138.57 115.795 137.782 116.485 137.584" fill="#E0E0E0"/>
<path d="M116.583 137.684H116.485C116.386 137.684 116.288 137.782 116.091 137.881C115.795 138.176 115.5 138.767 115.5 139.457C115.5 140.147 115.697 140.935 116.288 141.625C116.583 141.921 116.977 142.315 117.371 142.512C117.765 142.709 118.356 142.808 118.848 142.512C119.34 142.216 119.636 141.724 119.734 141.329C119.833 140.837 119.931 140.344 119.833 139.95C119.833 139.063 119.439 138.275 118.848 137.881C118.356 137.486 117.765 137.388 117.371 137.388C117.174 137.388 117.075 137.486 116.977 137.486C116.879 137.486 116.879 137.585 116.879 137.585C116.879 137.585 117.075 137.486 117.469 137.486C117.863 137.486 118.356 137.585 118.848 137.979C119.34 138.373 119.636 139.162 119.734 139.95C119.734 140.344 119.734 140.837 119.636 141.231C119.537 141.625 119.242 142.118 118.848 142.315C118.454 142.512 117.962 142.512 117.568 142.315C117.174 142.118 116.78 141.822 116.485 141.527C115.894 140.837 115.697 140.147 115.697 139.457C115.697 138.767 115.894 138.275 116.091 138.078C116.288 137.782 116.583 137.684 116.583 137.684Z" fill="#263238"/>
<path d="M116.682 143.891C116.682 143.891 116.682 143.792 116.781 143.595C116.879 143.398 117.076 143.201 117.273 143.004C117.569 142.807 117.765 142.708 117.962 142.708C118.159 142.61 118.258 142.61 118.258 142.61C118.258 142.61 118.159 142.61 117.864 142.61C117.667 142.61 117.372 142.708 117.076 142.905C116.781 143.103 116.584 143.398 116.485 143.595C116.682 143.792 116.682 143.891 116.682 143.891Z" fill="#263238"/>
<path d="M114.713 137.486C114.713 137.486 114.811 137.584 115.008 137.683C115.205 137.781 115.501 137.88 115.895 137.781C116.19 137.781 116.584 137.683 116.682 137.486C116.879 137.387 116.978 137.289 116.978 137.19C116.978 137.19 116.485 137.486 115.895 137.486C115.205 137.683 114.713 137.486 114.713 137.486Z" fill="#263238"/>
<path d="M99.5489 150.789C98.5642 151.084 97.481 150.296 96.4964 150.69C95.8071 150.986 95.4132 151.872 95.7086 152.562C96.004 153.252 96.8902 153.646 97.678 153.351C98.6627 152.858 98.8596 151.478 99.8443 150.887" fill="#263238"/>
<path d="M91.3759 154.336C91.6713 154.238 91.9667 154.139 92.2621 153.942L92.0651 153.646C90.8835 154.238 89.8004 154.336 88.8157 154.04C87.5356 153.646 86.4524 152.464 85.5662 150.69V150.592C85.1723 149.902 80.3474 135.318 79.4612 132.559C78.0826 128.223 81.6275 126.45 81.8244 126.351C81.9229 126.253 85.2708 124.578 88.6187 128.716C92.1636 133.052 98.2686 141.625 98.8595 142.61C98.9579 142.709 99.0564 142.906 99.1549 143.103C99.9426 144.384 101.518 147.143 100.14 149.508C98.5641 152.168 96.5947 151.971 96.4962 151.971V152.365C96.5947 152.365 98.761 152.562 100.533 149.705C102.109 147.143 100.336 144.285 99.5487 142.906C99.4503 142.709 99.3518 142.61 99.2533 142.413C98.6625 141.428 92.459 132.855 88.9141 128.519C85.3693 124.183 81.7259 126.056 81.7259 126.056C81.7259 126.056 77.6887 128.125 79.1658 132.658C79.855 134.924 84.9754 150 85.2708 150.69V150.789C86.157 152.661 87.3386 153.843 88.7172 154.238C89.6034 154.632 90.4896 154.632 91.3759 154.336Z" fill="#263238"/>
<path d="M80.249 135.515C80.3475 135.515 80.1506 134.727 80.446 133.544C80.6429 132.953 80.8398 132.263 81.3322 131.672C81.8245 130.982 82.4153 130.391 83.2031 129.898C84.7786 128.913 86.551 128.814 87.7326 129.11C88.9142 129.307 89.6035 129.701 89.6035 129.701C89.6035 129.701 89.6035 129.701 89.5051 129.603C89.4066 129.603 89.3081 129.504 89.2096 129.406C88.9142 129.209 88.4219 129.11 87.8311 128.913C87.2403 128.814 86.4525 128.716 85.6648 128.814C84.877 128.913 83.9908 129.209 83.2031 129.701C82.4153 130.194 81.726 130.884 81.3322 131.475C80.8398 132.165 80.6429 132.855 80.446 133.446C80.3475 134.037 80.3475 134.53 80.3475 134.924C80.3475 135.121 80.3475 135.219 80.446 135.318C80.249 135.417 80.249 135.515 80.249 135.515Z" fill="#263238"/>
<path d="M76.9009 111.374L93.2466 131.673L107.918 140.837L79.5595 105.067L76.9009 111.374Z" fill="#EBEBEB"/>
<path d="M62.5246 124.282C62.5246 124.282 59.0782 129.702 58.5859 135.22C58.389 137.388 63.7063 177.887 64.3955 179.759C64.9863 181.631 72.1745 186.164 74.2424 187.051C76.4087 187.938 102.306 196.609 112.94 196.511L115.205 176.508L87.9295 171.975C87.9295 171.975 84.7785 168.92 83.1045 168.329L80.8398 145.961L77.2949 127.928C77.2949 127.928 67.8419 122.016 62.5246 124.282Z" fill="#EBEBEB"/>
<path d="M123.87 148.621C123.772 148.621 122.295 142.709 120.621 135.417C118.947 128.027 117.667 122.114 117.864 122.016C117.962 122.016 119.439 127.928 121.113 135.22C122.787 142.61 124.067 148.523 123.87 148.621Z" fill="#263238"/>
<path d="M79.3624 143.891C79.3624 143.891 79.3624 143.99 79.4609 144.285C79.5594 144.581 79.5594 144.975 79.6578 145.566C79.8548 146.65 80.0517 148.325 80.4456 150.395C81.1348 154.632 82.0211 160.643 83.2027 168.23L83.1042 168.132C84.0889 168.526 84.8766 169.117 85.6644 169.708C86.4521 170.299 87.2399 170.989 88.0276 171.777L87.9292 171.679C95.8066 172.96 105.063 174.537 115.303 176.212H115.5V176.409C114.811 182.715 114.023 189.416 113.236 196.511V196.708H113.039C108.115 196.609 103.093 195.525 97.9729 194.343C91.671 192.865 85.5659 190.992 79.7563 189.219C78.2793 188.726 76.9007 188.233 75.4237 187.741C73.9467 187.248 72.6666 186.558 71.3865 185.77C70.1064 184.982 68.9248 184.193 67.7431 183.306C66.5615 182.42 65.4784 181.631 64.4937 180.449C64.2967 180.153 64.0998 179.759 64.0013 179.463C63.9029 179.069 63.9029 178.774 63.8044 178.38C63.7059 177.69 63.6075 177 63.509 176.31C63.3121 174.931 63.1151 173.65 62.9182 172.27C62.5243 169.61 62.2289 167.048 61.835 164.584C61.1458 159.657 60.5549 155.026 60.0626 150.789C59.5703 146.552 59.0779 142.807 58.7825 139.457C58.684 138.57 58.5856 137.782 58.5856 136.994C58.5856 136.205 58.3886 135.417 58.5856 134.727C58.7825 133.249 59.1764 131.968 59.4718 130.884C60.1611 128.618 61.0473 126.943 61.6381 125.859C61.9335 125.268 62.1304 124.873 62.3274 124.578C62.5243 124.282 62.6228 124.184 62.6228 124.184C62.6228 124.184 62.5243 124.282 62.4258 124.578C62.1304 124.972 61.835 125.465 61.6381 125.957C61.0473 127.041 60.358 128.716 59.6687 130.983C59.2749 132.067 58.9794 133.348 58.7825 134.826C58.684 135.515 58.7825 136.304 58.7825 137.092C58.881 137.88 58.9794 138.669 58.9794 139.556C59.3733 142.906 59.8657 146.65 60.358 150.887C60.9488 155.125 61.5396 159.657 62.2289 164.683C62.6228 167.146 62.9182 169.708 63.3121 172.369C63.509 173.65 63.7059 175.029 63.9029 176.409C64.0013 177.099 64.0998 177.788 64.1983 178.478C64.2967 178.774 64.2967 179.168 64.3952 179.463C64.4937 179.858 64.5921 180.055 64.7891 180.35C65.6753 181.434 66.7585 182.223 67.9401 183.109C69.1217 183.996 70.3033 184.784 71.5834 185.474C72.8635 186.263 74.1436 186.952 75.5221 187.445C76.9007 187.938 78.3777 188.43 79.8548 188.923C85.6644 190.795 91.7694 192.569 97.9729 194.047C102.995 195.23 108.017 196.313 112.842 196.412L112.546 196.609C113.334 189.613 114.122 182.814 114.811 176.606L115.008 176.901C104.767 175.226 95.5112 173.65 87.7322 172.27H87.6338C86.846 171.58 86.0583 170.891 85.2705 170.201C84.4828 169.61 83.695 169.018 82.8088 168.624H82.7103V168.526C81.6272 160.938 80.741 154.829 80.1502 150.69C79.8548 148.621 79.6578 147.044 79.4609 145.862C79.3624 145.369 79.3624 144.877 79.2639 144.581C79.3624 143.99 79.3624 143.891 79.3624 143.891Z" fill="#263238"/>
<path d="M77.6884 137.88C77.59 137.88 77.1961 136.993 76.4083 135.417C75.6206 133.939 74.6359 131.771 72.9619 129.8C71.288 127.829 69.3186 126.548 67.7431 126.055C66.1676 125.464 65.0845 125.563 65.0845 125.464C65.0845 125.464 65.3799 125.366 65.8722 125.366C66.3646 125.366 67.0538 125.464 67.8416 125.661C69.5156 126.154 71.6819 127.336 73.3558 129.406C75.0298 131.475 76.0145 133.643 76.7038 135.121C77.4915 136.796 77.7869 137.782 77.6884 137.88Z" fill="#263238"/>
<path d="M73.3559 171.876C73.2575 171.777 74.8329 169.905 77.5901 168.821C80.3472 167.737 82.8089 168.132 82.8089 168.23C82.8089 168.427 80.4456 168.23 77.787 169.314C75.1284 170.398 73.4544 172.073 73.3559 171.876Z" fill="#263238"/>
<path d="M76.4087 175.128C76.3102 175.128 76.9011 172.861 78.9689 170.792C80.9383 168.723 83.203 168.033 83.203 168.23C83.3015 168.328 81.2337 169.215 79.2643 171.186C77.3934 173.058 76.6057 175.128 76.4087 175.128Z" fill="#263238"/>
<path d="M107.918 140.837C107.918 140.837 107.525 140.64 106.835 140.245C106.048 139.753 105.063 139.162 103.783 138.373C101.124 136.698 97.4808 134.432 93.2466 131.87C91.7696 129.998 90.0957 127.928 88.3232 125.76C83.7937 120.144 79.7565 115.118 76.9993 111.571L76.9009 111.472V111.374C77.6886 109.502 78.3779 107.925 78.8702 106.743C79.0672 106.25 79.2641 105.856 79.4611 105.462C79.5595 105.166 79.658 105.067 79.658 105.067C79.658 105.067 79.658 105.264 79.5595 105.56C79.4611 105.954 79.2641 106.348 79.0672 106.841C78.5748 108.024 77.984 109.6 77.2948 111.571V111.374C80.1503 114.823 84.286 119.848 88.8156 125.465C90.4895 127.633 92.1635 129.702 93.739 131.574L93.6405 131.476C97.8747 134.136 101.42 136.501 104.078 138.176C105.358 138.964 106.343 139.654 107.032 140.147C107.525 140.541 107.918 140.837 107.918 140.837Z" fill="#263238"/>
<path d="M110.281 144.581C110.281 144.581 110.281 144.089 110.38 143.3C110.478 142.413 110.675 141.132 110.872 139.753C111.266 136.698 111.857 132.461 112.546 127.731V127.928C112.251 127.337 111.955 126.746 111.562 126.155C109.1 121.523 106.835 117.286 105.26 114.231C104.472 112.753 103.881 111.571 103.389 110.586C102.995 109.699 102.699 109.206 102.798 109.206C102.798 109.206 103.093 109.6 103.586 110.487C104.078 111.374 104.767 112.655 105.555 114.034C107.229 117.089 109.494 121.228 112.054 125.958C112.349 126.549 112.743 127.14 113.039 127.731V127.83V127.928C112.349 132.658 111.66 136.895 111.168 139.95C110.971 141.428 110.675 142.61 110.577 143.497C110.38 144.187 110.281 144.68 110.281 144.581Z" fill="#263238"/>
<path d="M80.347 127.041L81.2332 126.548L80.347 127.041C79.0669 124.873 77.6883 122.607 76.7036 120.143L76.5067 119.749C75.522 117.384 74.3404 114.625 74.8327 111.965V111.866C75.0297 110.684 75.7189 109.698 76.6052 108.91L76.9006 108.713H77.6883V110.191L77.8852 110.388C77.7868 110.487 77.7868 110.487 77.6883 110.585V110.684H77.5898C77.0975 111.176 76.8021 111.669 76.7036 112.26V112.359C76.3097 114.428 77.3929 116.892 78.2791 118.961L78.4761 119.355C79.4607 121.621 80.7408 123.789 82.0209 125.957L80.347 127.041Z" fill="#263238"/>
<path d="M116.288 187.15C116.288 187.15 116.387 187.445 116.387 187.839C116.485 188.332 116.583 189.12 116.682 190.007C116.879 191.879 117.273 194.54 117.667 197.89C118.454 204.492 119.341 213.656 120.227 223.806C121.113 233.955 121.704 243.119 122.098 249.82C122.295 253.17 122.393 255.831 122.492 257.703C122.492 258.59 122.59 259.279 122.59 259.871C122.59 260.363 122.59 260.659 122.59 260.659C122.59 260.659 122.59 260.363 122.492 259.871C122.492 259.378 122.393 258.59 122.295 257.703C122.196 255.831 121.999 253.072 121.704 249.82C121.212 243.119 120.621 233.955 119.734 223.806C118.848 213.656 117.962 204.492 117.371 197.89C117.076 194.639 116.78 191.978 116.583 190.007C116.485 189.12 116.485 188.431 116.387 187.839C116.288 187.347 116.288 187.15 116.288 187.15Z" fill="#263238"/>
<path d="M103.684 210.208C103.684 210.208 103.487 210.503 102.995 210.897C102.502 211.291 101.912 211.784 101.025 212.474C99.3515 213.755 96.9882 215.529 94.2311 217.204C92.8525 217.992 91.3755 218.682 90.0954 219.273C88.8153 219.766 87.5352 220.16 86.5506 220.455C85.4674 220.653 84.6797 220.85 84.0889 220.85C83.498 220.948 83.2026 220.948 83.2026 220.85C83.2026 220.751 84.4827 220.653 86.5506 220.061C87.5352 219.766 88.7169 219.372 89.997 218.78C91.277 218.189 92.6556 217.499 94.0342 216.711C96.7913 215.134 99.1545 213.361 100.927 212.178C102.601 210.996 103.684 210.208 103.684 210.208Z" fill="#263238"/>
<path d="M105.161 214.05C105.161 214.05 104.964 214.346 104.669 214.839C104.275 215.331 103.684 216.021 102.995 216.809C101.518 218.386 99.0562 220.357 96.1022 221.933C93.1481 223.51 90.1941 224.397 88.0278 224.791C86.9446 224.988 86.0584 225.087 85.4676 225.087C84.8768 225.087 84.4829 225.087 84.4829 225.087C84.4829 224.988 85.8615 224.889 87.9293 224.397C90.0956 223.904 92.9512 223.017 95.9052 221.441C98.8593 219.864 101.223 217.992 102.798 216.514C104.275 215.134 105.161 214.05 105.161 214.05Z" fill="#263238"/>
<path d="M84.1874 225.481C84.0889 225.481 83.7935 224.298 83.6951 222.82C83.4981 221.342 83.4981 220.061 83.6951 220.061C83.7935 220.061 84.0889 221.244 84.1874 222.722C84.2859 224.298 84.2859 225.481 84.1874 225.481Z" fill="#263238"/>
<path d="M81.8245 94.9181C81.1352 95.0167 80.4459 94.4255 80.1505 93.7357C79.7566 93.0459 79.6582 92.2576 79.5597 91.5679C79.0674 88.2176 78.6735 84.8673 78.1811 81.517C77.7873 78.6594 77.3934 75.8018 77.4919 72.9442C77.5903 70.0866 78.772 67.5246 80.052 65.0611C81.5291 62.105 87.7326 56.981 97.8748 59.8386" fill="#263238"/>
<path d="M81.2339 82.7978C81.1355 82.6993 75.8182 81.3198 76.0151 86.6408C76.3105 92.0604 81.6278 90.6809 81.6278 90.4838C81.7263 90.3853 81.2339 82.7978 81.2339 82.7978Z" fill="#FFBE9D"/>
<path d="M79.9541 88.6115C79.9541 88.6115 79.8556 88.71 79.7571 88.8086C79.5602 88.9071 79.3633 88.9071 79.0678 88.9071C78.477 88.71 77.9847 87.8232 77.8862 86.8378C77.8862 86.3451 77.8862 85.8524 78.0832 85.4583C78.1816 85.0641 78.477 84.7685 78.7724 84.67C79.0678 84.5714 79.2648 84.7685 79.3633 84.8671C79.4617 84.9656 79.4617 85.1627 79.4617 85.1627C79.4617 85.1627 79.5602 85.0641 79.5602 84.8671C79.5602 84.7685 79.4617 84.67 79.3633 84.5714C79.2648 84.4729 79.0678 84.4729 78.8709 84.4729C78.477 84.5714 78.0832 84.9656 77.8862 85.3597C77.6893 85.7539 77.5908 86.3451 77.5908 86.8378C77.6893 87.9217 78.2801 88.9071 79.0678 89.1042C79.4617 89.2027 79.7571 89.0057 79.9541 88.9071C79.9541 88.71 79.9541 88.6115 79.9541 88.6115Z" fill="#EB996E"/>
<path d="M109.002 92.8489C109.002 89.0059 108.313 81.2214 107.623 74.1266C106.836 66.4407 100.337 60.7255 92.6562 60.824H91.8684C83.6955 61.5138 79.6583 68.8056 80.5445 76.9842L81.7262 103.097L101.321 113.837L101.223 102.111C101.124 102.111 109.002 100.732 109.002 92.8489Z" fill="#FFBE9D"/>
<path d="M101.124 102.112C101.124 102.112 96.1025 102.604 90.7852 99.3525C90.7852 99.3525 93.2469 105.068 101.124 104.181V102.112Z" fill="#EB996E"/>
<path d="M104.964 79.2503C104.964 79.8415 104.472 80.3342 103.881 80.4327C103.291 80.4327 102.7 80.0386 102.7 79.4473C102.7 78.8561 103.192 78.3634 103.783 78.2649C104.374 78.2649 104.964 78.659 104.964 79.2503Z" fill="#263238"/>
<path d="M106.047 77.5754C105.949 77.7724 105.063 77.0827 103.881 77.1812C102.7 77.1812 101.813 77.871 101.616 77.6739C101.518 77.5754 101.715 77.3783 102.109 77.0827C102.503 76.7871 103.093 76.4915 103.881 76.4915C104.669 76.4915 105.26 76.7871 105.654 76.9841C105.949 77.2798 106.146 77.4768 106.047 77.5754Z" fill="#263238"/>
<path d="M93.1476 79.5459C93.1476 80.1371 92.6552 80.6298 92.0644 80.7283C91.4736 80.7283 90.8828 80.3342 90.8828 79.7429C90.8828 79.1517 91.3752 78.659 91.966 78.5605C92.6552 78.4619 93.1476 78.9546 93.1476 79.5459Z" fill="#263238"/>
<path d="M93.9358 77.4768C93.8374 77.6738 92.8527 77.0826 91.6711 77.2797C90.4894 77.3782 89.7017 78.1665 89.5048 78.068C89.4063 77.9695 89.5048 77.7724 89.8986 77.3782C90.194 77.0826 90.8833 76.6885 91.5726 76.5899C92.3603 76.4914 92.9511 76.6885 93.345 76.8855C93.8374 77.1812 94.0343 77.3782 93.9358 77.4768Z" fill="#263238"/>
<path d="M98.5639 87.3306C98.5639 87.2321 99.3517 87.1336 100.533 86.9365C100.829 86.9365 101.124 86.8379 101.223 86.6409C101.321 86.4438 101.124 86.0496 101.026 85.754C100.73 84.9657 100.435 84.2759 100.041 83.3891C98.6624 80.0388 97.7762 77.2798 97.8746 77.2798C97.9731 77.1812 99.1547 79.8417 100.533 83.192C100.829 83.9803 101.124 84.7686 101.419 85.5569C101.518 85.9511 101.715 86.3452 101.616 86.7394C101.518 86.9365 101.321 87.1336 101.124 87.2321C100.927 87.3306 100.73 87.3306 100.632 87.3306C99.3517 87.4292 98.5639 87.4292 98.5639 87.3306Z" fill="#263238"/>
<path d="M95.0192 88.2173C95.2161 88.2173 95.2161 89.4983 96.3978 90.3851C97.5794 91.272 98.9579 91.1734 98.9579 91.272C98.9579 91.3705 98.6625 91.5676 98.0717 91.5676C97.4809 91.5676 96.5947 91.469 95.9054 90.8778C95.2161 90.2866 94.9207 89.5968 94.8223 89.0056C94.8223 88.6114 94.9207 88.2173 95.0192 88.2173Z" fill="#263238"/>
<path d="M94.0345 72.2539C93.936 72.5495 92.7544 72.4509 91.2773 72.648C89.8988 72.8451 88.7172 73.2392 88.5202 72.9436C88.4218 72.8451 88.6187 72.4509 89.111 72.1553C89.6034 71.8597 90.2927 71.4656 91.1789 71.367C92.0651 71.2685 92.8528 71.367 93.3452 71.5641C93.8375 71.8597 94.1329 72.0568 94.0345 72.2539Z" fill="#263238"/>
<path d="M105.457 74.5205C105.26 74.8161 104.374 74.5205 103.389 74.5205C102.404 74.5205 101.518 74.7176 101.321 74.422C101.223 74.3234 101.321 74.0278 101.715 73.7322C102.109 73.4366 102.7 73.2395 103.389 73.2395C104.078 73.2395 104.669 73.5351 105.063 73.7322C105.358 74.0278 105.555 74.3234 105.457 74.5205Z" fill="#263238"/>
<path d="M98.4659 60.0356C95.6103 58.9517 92.8532 59.4444 89.8992 59.9371C87.5359 60.2327 85.4681 61.021 83.5972 62.4005C80.6431 64.5684 79.0676 68.1157 78.9692 71.8602C78.7722 75.6046 79.1661 78.8564 80.1508 82.5023L80.4462 82.4037C80.2492 83.2906 80.0523 84.276 80.4462 85.1628C80.7416 86.0497 81.7263 86.7394 82.6125 86.3453C83.5972 85.9511 83.5972 84.5716 83.4987 83.4877C83.2033 79.8418 83.2033 76.1959 83.4987 72.5499C83.6956 69.7909 85.1727 66.4406 87.339 65.1596C91.1792 62.5976 96.2011 64.6669 97.9736 64.9625C100.632 62.6961 103.094 64.4698 104.669 66.4406C103.98 63.583 101.223 61.1195 98.4659 60.0356Z" fill="#263238"/>
<path d="M97.8751 65.0614C99.6476 65.0614 101.026 63.8789 102.897 64.1745C104.079 64.3716 105.26 66.2438 106.245 68.6087C107.427 67.919 108.017 66.4409 107.82 65.1599C107.623 63.8789 106.54 62.6965 105.26 62.4008C105.654 62.5979 106.245 62.8935 106.737 62.8935C107.328 62.8935 107.82 62.4008 107.82 61.9082C107.82 61.514 107.525 61.2184 107.131 60.9228C105.359 59.5432 103.094 58.8535 100.928 59.1491C98.7613 59.4447 96.6935 60.5286 95.3149 62.3023" fill="#263238"/>
<path d="M106.737 61.8093C106.737 61.9078 106.146 61.5137 105.26 61.2181C104.374 60.9224 102.995 60.7254 101.518 61.2181C100.14 61.7108 99.1551 62.6961 98.5642 63.4844C98.0719 64.2727 97.875 64.864 97.7765 64.864C97.678 64.864 97.7765 64.1742 98.2688 63.2874C98.7612 62.4005 99.8443 61.2181 101.321 60.7254C102.897 60.2327 104.374 60.4298 105.359 60.8239C106.343 61.2181 106.737 61.7108 106.737 61.8093Z" fill="#455A64"/>
<path d="M106.343 67.7216C106.245 67.7216 106.54 67.0319 106.343 65.8494C106.245 65.2582 105.949 64.667 105.457 64.1743C104.965 63.583 104.275 63.1889 103.488 62.9918C101.814 62.4991 100.238 63.0904 99.2534 63.6816C98.2687 64.2728 97.7764 64.864 97.7764 64.7655C97.7764 64.7655 98.0718 64.0757 99.0565 63.386C99.5488 62.9918 100.14 62.6962 100.927 62.4991C101.715 62.302 102.601 62.302 103.586 62.4991C104.472 62.6962 105.26 63.2874 105.851 63.8787C106.343 64.4699 106.639 65.2582 106.737 65.8494C106.934 67.0319 106.442 67.7216 106.343 67.7216Z" fill="#455A64"/>
<path d="M78.2796 80.7287C78.2796 80.7287 78.1811 80.4331 78.0827 80.0389C77.9842 79.5463 77.8857 78.8565 77.8857 77.9696C77.8857 76.2945 78.2796 73.831 79.5597 71.4661C80.8398 69.1012 82.6122 67.4261 84.0893 66.5392C84.7785 66.0465 85.4678 65.7509 85.8617 65.5538C86.354 65.3568 86.551 65.2582 86.551 65.3568C86.551 65.4553 85.5663 65.8495 84.2862 66.8348C82.9076 67.8202 81.2337 69.4954 79.9536 71.6632C78.772 73.9296 78.2796 76.2945 78.1811 77.9696C78.1811 79.6448 78.3781 80.7287 78.2796 80.7287Z" fill="#455A64"/>
<path d="M79.5597 81.7139C79.4612 81.7139 78.8704 78.9548 79.9535 75.8016C81.0367 72.5499 83.1045 70.6776 83.1045 70.7762C83.203 70.8747 81.4306 72.8455 80.3474 75.9001C79.3627 79.0534 79.6581 81.7139 79.5597 81.7139Z" fill="#455A64"/>
<path d="M168.674 126.845C168.477 126.254 167.295 126.155 167.295 126.155L167.492 125.86C167.787 125.367 167.886 124.776 167.59 124.184C167.59 124.086 167.492 123.987 167.492 123.987C167.098 123.396 166.212 123.002 166.212 123.002C166.212 123.002 167 121.819 166.803 121.327C166.507 120.538 165.326 119.652 164.242 119.849C163.061 120.046 160.599 120.834 158.827 121.425C158.137 121.721 157.35 121.228 157.251 120.538C156.956 119.159 156.463 117.09 155.479 115.612C154.494 113.936 153.312 113.936 152.623 114.035C152.328 114.133 152.131 114.429 152.229 114.823C152.623 115.71 153.312 117.582 153.509 118.272C153.706 119.159 153.017 125.564 153.017 125.564L149.768 129.998L157.153 140.64L160.402 135.812L167.393 132.757C167.393 132.757 168.674 131.082 168.575 130.491C168.477 129.9 167.886 129.604 167.886 129.604L168.772 128.422C168.87 128.224 168.87 127.436 168.674 126.845Z" fill="#FFBE9D"/>
<path d="M166.803 123.002C166.803 123.002 166.803 123.002 166.704 123.1C166.606 123.199 166.409 123.199 166.31 123.396C165.917 123.593 165.424 123.889 164.735 124.283C164.046 124.677 163.258 125.071 162.372 125.564C161.879 125.761 161.485 126.057 160.993 126.254C160.501 126.451 159.811 126.549 159.319 126.254C159.024 126.057 158.827 125.761 158.827 125.564C158.728 125.268 158.728 124.973 158.827 124.677C158.925 124.086 159.319 123.692 159.713 123.297C160.107 123.002 160.501 122.706 160.895 122.509C161.288 122.312 161.682 122.016 161.978 121.819C162.667 121.425 163.159 121.13 163.553 120.933C163.75 120.834 163.849 120.736 163.947 120.736C164.046 120.637 164.144 120.637 164.144 120.637C164.144 120.637 164.144 120.637 164.046 120.736C163.947 120.834 163.75 120.933 163.652 121.031C163.258 121.228 162.766 121.622 162.076 122.016C161.781 122.214 161.387 122.411 160.993 122.706C160.599 122.903 160.205 123.199 159.811 123.495C159.418 123.79 159.122 124.184 159.024 124.776C158.925 125.268 159.024 125.958 159.516 126.254C159.713 126.451 160.008 126.451 160.304 126.451C160.599 126.451 160.796 126.352 161.092 126.254C161.584 126.057 162.076 125.761 162.47 125.564C163.356 125.071 164.144 124.677 164.833 124.283C165.523 123.987 166.015 123.692 166.409 123.495C166.606 123.396 166.704 123.297 166.803 123.297C166.704 123.1 166.803 123.002 166.803 123.002Z" fill="#EB996E"/>
<path d="M167.787 126.254C167.787 126.254 167.689 126.352 167.492 126.451C167.295 126.549 167 126.747 166.507 126.944C165.719 127.338 164.636 127.83 163.356 128.323C163.061 128.422 162.765 128.619 162.372 128.619C162.076 128.717 161.682 128.717 161.387 128.619C160.796 128.422 160.402 127.929 160.304 127.436C160.205 126.944 160.402 126.648 160.501 126.451C160.599 126.352 160.599 126.254 160.698 126.254C160.796 126.254 160.796 126.155 160.796 126.155C160.796 126.155 160.698 126.254 160.599 126.451C160.501 126.648 160.304 127.042 160.402 127.436C160.501 127.83 160.796 128.323 161.387 128.422C161.682 128.52 161.978 128.422 162.273 128.422C162.568 128.323 162.864 128.225 163.159 128.126C164.439 127.633 165.523 127.141 166.31 126.747C166.704 126.549 167 126.451 167.295 126.352C167.59 126.254 167.689 126.254 167.787 126.254Z" fill="#EB996E"/>
<path d="M168.082 129.308C168.082 129.308 167.984 129.407 167.787 129.407C167.492 129.506 167.196 129.604 166.901 129.703C166.113 129.9 165.03 130.294 163.848 130.589C163.553 130.688 163.257 130.787 162.962 130.787C162.667 130.885 162.371 130.787 162.076 130.688C161.78 130.589 161.583 130.392 161.485 130.097C161.387 129.801 161.387 129.604 161.485 129.407C161.583 129.013 161.977 128.816 162.076 128.619C162.273 128.52 162.371 128.422 162.371 128.422C162.371 128.422 162.273 128.52 162.076 128.619C161.879 128.717 161.583 129.013 161.485 129.308C161.387 129.506 161.387 129.703 161.485 129.9C161.583 130.097 161.78 130.294 161.977 130.392C162.174 130.491 162.47 130.491 162.765 130.392C163.06 130.392 163.356 130.294 163.651 130.195C164.833 129.801 165.916 129.506 166.704 129.308C167.098 129.21 167.393 129.111 167.688 129.013C167.984 129.308 168.082 129.308 168.082 129.308Z" fill="#EB996E"/>
<path d="M168.181 132.067C168.181 132.067 167.787 132.166 167.098 132.166C166.409 132.166 165.523 132.264 164.538 132.264C164.242 132.264 164.046 132.264 163.849 132.264C163.652 132.264 163.356 132.264 163.159 132.264C162.962 132.264 162.765 132.067 162.569 131.968C162.47 131.771 162.372 131.574 162.372 131.377C162.47 130.983 162.667 130.885 162.864 130.786C163.061 130.687 163.159 130.688 163.159 130.688C163.159 130.688 163.061 130.687 162.962 130.786C162.864 130.885 162.569 131.082 162.569 131.377C162.569 131.476 162.569 131.673 162.667 131.771C162.765 131.87 162.962 131.968 163.159 132.067C163.356 132.067 163.553 132.067 163.849 132.067C164.046 132.067 164.341 132.067 164.538 132.067C165.523 132.067 166.409 131.968 167.098 131.968C167.787 132.067 168.181 132.067 168.181 132.067Z" fill="#EB996E"/>
<path d="M161.485 129.703C161.485 129.703 160.697 129.309 159.713 129.21C158.728 129.112 157.94 129.309 157.842 129.309C157.842 129.309 158.63 128.915 159.713 129.112C160.796 129.21 161.485 129.703 161.485 129.703Z" fill="#EB996E"/>
<path d="M115.008 177.591L116.485 177.197C116.485 177.197 116.977 174.635 117.667 174.044C118.356 173.551 125.15 170.398 126.627 169.61C128.104 168.822 133.914 166.161 134.702 167.541C135.49 169.117 133.126 170.398 131.846 171.088C130.566 171.679 126.923 173.157 127.612 174.044C128.301 174.931 136.573 174.537 136.573 174.537L137.557 173.157C137.557 173.157 139.33 174.832 139.133 176.31C138.936 177.789 138.345 178.774 138.345 178.774H137.754C137.754 178.774 138.345 179.661 137.853 180.548C137.36 181.434 136.277 182.617 136.277 182.617C136.277 182.617 135.293 184.686 132.437 185.475C132.142 185.573 118.553 186.756 118.553 186.756L114.023 187.248L115.008 177.591Z" fill="#FFBE9D"/>
<defs>
<filter id="filter0_d" x="110.166" y="67.4819" width="111.832" height="46.0827" filterUnits="userSpaceOnUse" color-interpolation-filters="sRGB">
<feFlood flood-opacity="0" result="BackgroundImageFix"/>
<feColorMatrix in="SourceAlpha" type="matrix" values="0 0 0 0 0 0 0 0 0 0 0 0 0 0 0 0 0 0 127 0" result="hardAlpha"/>
<feOffset dx="-10" dy="-10"/>
<feGaussianBlur stdDeviation="7.5"/>
<feColorMatrix type="matrix" values="0 0 0 0 1 0 0 0 0 1 0 0 0 0 1 0 0 0 0.65 0"/>
<feBlend mode="normal" in2="BackgroundImageFix" result="effect1_dropShadow"/>
<feBlend mode="normal" in="SourceGraphic" in2="effect1_dropShadow" result="shape"/>
</filter>
<filter id="filter1_d" x="263.288" y="227.496" width="219.681" height="129.807" filterUnits="userSpaceOnUse" color-interpolation-filters="sRGB">
<feFlood flood-opacity="0" result="BackgroundImageFix"/>
<feColorMatrix in="SourceAlpha" type="matrix" values="0 0 0 0 0 0 0 0 0 0 0 0 0 0 0 0 0 0 127 0" result="hardAlpha"/>
<feOffset dx="5" dy="10"/>
<feGaussianBlur stdDeviation="7.5"/>
<feColorMatrix type="matrix" values="0 0 0 0 0.337255 0 0 0 0 0.396078 0 0 0 0 0.87451 0 0 0 0.05 0"/>
<feBlend mode="normal" in2="BackgroundImageFix" result="effect1_dropShadow"/>
<feBlend mode="normal" in="SourceGraphic" in2="effect1_dropShadow" result="shape"/>
</filter>
<filter id="filter2_d" x="271.288" y="85.2246" width="383.901" height="140.769" filterUnits="userSpaceOnUse" color-interpolation-filters="sRGB">
<feFlood flood-opacity="0" result="BackgroundImageFix"/>
<feColorMatrix in="SourceAlpha" type="matrix" values="0 0 0 0 0 0 0 0 0 0 0 0 0 0 0 0 0 0 127 0" result="hardAlpha"/>
<feOffset dx="5" dy="4"/>
<feGaussianBlur stdDeviation="3.5"/>
<feColorMatrix type="matrix" values="0 0 0 0 0 0 0 0 0 0 0 0 0 0 0 0 0 0 0.05 0"/>
<feBlend mode="normal" in2="BackgroundImageFix" result="effect1_dropShadow"/>
<feBlend mode="normal" in="SourceGraphic" in2="effect1_dropShadow" result="shape"/>
</filter>
<filter id="filter3_d" x="464.358" y="226.112" width="200.278" height="148.679" filterUnits="userSpaceOnUse" color-interpolation-filters="sRGB">
<feFlood flood-opacity="0" result="BackgroundImageFix"/>
<feColorMatrix in="SourceAlpha" type="matrix" values="0 0 0 0 0 0 0 0 0 0 0 0 0 0 0 0 0 0 127 0" result="hardAlpha"/>
<feOffset dx="5" dy="10"/>
<feGaussianBlur stdDeviation="7.5"/>
<feColorMatrix type="matrix" values="0 0 0 0 0.337255 0 0 0 0 0.396078 0 0 0 0 0.87451 0 0 0 0.05 0"/>
<feBlend mode="normal" in2="BackgroundImageFix" result="effect1_dropShadow"/>
<feBlend mode="normal" in="SourceGraphic" in2="effect1_dropShadow" result="shape"/>
</filter>
<filter id="filter4_f" x="0" y="328.207" width="220" height="111.388" filterUnits="userSpaceOnUse" color-interpolation-filters="sRGB">
<feFlood flood-opacity="0" result="BackgroundImageFix"/>
<feBlend mode="normal" in="SourceGraphic" in2="BackgroundImageFix" result="shape"/>
<feGaussianBlur stdDeviation="25" result="effect1_foregroundBlur"/>
</filter>
</defs>
</svg>
