<svg xmlns="http://www.w3.org/2000/svg" viewBox="0 0 150 150" width="150" height="150" preserveAspectRatio="xMidYMid slice" style="width: 100%; height: 100%; transform: translate3d(0px, 0px, 0px);"><defs><clipPath id="__lottie_element_17"><rect width="150" height="150" x="0" y="0"></rect></clipPath></defs><g clip-path="url(#__lottie_element_17)"><g transform="matrix(1,0,0,1,75,75)" opacity="1" style="display: block;"><g opacity="1" transform="matrix(1,0,0,1,0,0)"><g opacity="1" transform="matrix(1,0,0,1,0,0)"><g opacity="1" transform="matrix(1,0,0,1,0,0)"><path fill="rgb(227,231,251)" fill-opacity="1" d=" M0,-49.996925354003906 C27.593303680419922,-49.996925354003906 49.996925354003906,-27.593303680419922 49.996925354003906,0 C49.996925354003906,27.593303680419922 27.593303680419922,49.996925354003906 0,49.996925354003906 C-27.593303680419922,49.996925354003906 -49.996925354003906,27.593303680419922 -49.996925354003906,0 C-49.996925354003906,-27.593303680419922 -27.593303680419922,-49.996925354003906 0,-49.996925354003906z"></path></g><g opacity="1" transform="matrix(1,0,0,1,0,0)"><g opacity="1" transform="matrix(0.9999354481697083,0,0,0.9999354481697083,0,0)"><path fill="rgb(73,101,233)" fill-opacity="1" d=" M0,-40 C22.076000213623047,-40 40,-22.076000213623047 40,0 C40,22.076000213623047 22.076000213623047,40 0,40 C-22.076000213623047,40 -40,22.076000213623047 -40,0 C-40,-22.076000213623047 -22.076000213623047,-40 0,-40z"></path></g><g opacity="1" transform="matrix(0.8999696373939514,0,0,0.8999696373939514,0,0)"><path fill="rgb(23,47,149)" fill-opacity="1" d=" M-1.6059999465942383,3.9110000133514404 C-2.9670000076293945,1.8489999771118164 -4.196000099182129,-0.29499998688697815 -5.2870001792907715,-2.51200008392334 C-5.736000061035156,-3.424999952316284 -6.198999881744385,-4.367000102996826 -6.563000202178955,-5.107999801635742 C-6.980999946594238,-5.958000183105469 -6.830999851226807,-6.9770002365112305 -6.186999797821045,-7.671000003814697 C-5.357999801635742,-8.562999725341797 -4.247000217437744,-9.758999824523926 -3.5969998836517334,-10.458000183105469 C-3.2660000324249268,-10.8149995803833 -3.1500000953674316,-11.319999694824219 -3.2939999103546143,-11.78499984741211 C-3.8420000076293945,-13.557000160217285 -5.214000225067139,-17.98900032043457 -5.804999828338623,-19.899999618530273 C-5.980999946594238,-20.4689998626709 -6.506999969482422,-20.857999801635742 -7.103000164031982,-20.857999801635742 C-9.206999778747559,-20.825000762939453 -13.845000267028809,-20.038999557495117 -13.977999687194824,-13.626999855041504 C-14.137999534606934,-5.834000110626221 -8.359000205993652,3.5360000133514404 -8.359000205993652,3.5360000133514404 C-8.359000205993652,3.5360000133514404 -2.680999994277954,14.010000228881836 4.14900016784668,17.767000198364258 C9.767000198364258,20.858999252319336 12.767000198364258,17.235000610351562 13.842000007629395,15.427000045776367 C14.137999534606934,14.913000106811523 14.0649995803833,14.265999794006348 13.663000106811523,13.831999778747559 C12.307000160217285,12.359000205993652 9.154999732971191,8.954999923706055 7.894999980926514,7.59499979019165 C7.565000057220459,7.23799991607666 7.068999767303467,7.085000038146973 6.593999862670898,7.192999839782715 C5.665999889373779,7.406000137329102 4.080999851226807,7.76800012588501 2.8970000743865967,8.039999961853027 C1.968000054359436,8.253000259399414 1.0049999952316284,7.867000102996826 0.47999998927116394,7.071000099182129 C-0.09700000286102295,6.197999954223633 -0.878000020980835,5.013999938964844 -1.6059999465942383,3.9110000133514404z"></path></g></g></g><g opacity="1" transform="matrix(1,0,0,1,0,0)"><g opacity="1" transform="matrix(1,0,0,1,0,0)"><g opacity="1" transform="matrix(0.9848077297210693,0.1736481785774231,-0.1736481785774231,0.9848077297210693,0,0)"><path stroke-linecap="round" stroke-linejoin="round" fill-opacity="0" stroke="rgb(227,231,251)" stroke-opacity="1" stroke-width="2" d=" M0,-15.94826602935791 C8.801848411560059,-15.94826602935791 15.94826602935791,-8.801848411560059 15.94826602935791,0 C15.947999954223633,0 15.947999954223633,0 15.947999954223633,0"></path></g><g opacity="1" transform="matrix(0.9848077297210693,0.1736481785774231,-0.1736481785774231,0.9848077297210693,0,0)"><path stroke-linecap="round" stroke-linejoin="round" fill-opacity="0" stroke="rgb(227,231,251)" stroke-opacity="1" stroke-width="2" d=" M0,-23.996746063232422 C13.243803977966309,-23.996746063232422 23.996746063232422,-13.243803977966309 23.996746063232422,0 C23.996999740600586,0 23.996999740600586,0 23.996999740600586,0"></path></g></g></g></g></g></g></svg>